<mxfile host="app.diagrams.net" modified="2023-06-25T15:30:00.341Z" agent="Mozilla/5.0 (X11; Linux x86_64; rv:109.0) Gecko/20100101 Firefox/114.0" etag="EBDr5MUzlNPdQEswMNeB" version="21.5.0" type="device">
  <diagram name="Page-1" id="jy6MJcqGbUWhNg47L0po">
    <mxGraphModel dx="1434" dy="712" grid="1" gridSize="10" guides="1" tooltips="1" connect="1" arrows="1" fold="1" page="1" pageScale="1" pageWidth="850" pageHeight="1100" math="0" shadow="0">
      <root>
        <mxCell id="0" />
        <mxCell id="1" parent="0" />
        <mxCell id="xisyeF8i3s65-wHOhWzp-13" style="edgeStyle=orthogonalEdgeStyle;rounded=0;orthogonalLoop=1;jettySize=auto;html=1;curved=1;startArrow=classic;startFill=1;endArrow=none;endFill=0;" parent="1" source="xisyeF8i3s65-wHOhWzp-1" target="xisyeF8i3s65-wHOhWzp-12" edge="1">
          <mxGeometry relative="1" as="geometry" />
        </mxCell>
        <mxCell id="xisyeF8i3s65-wHOhWzp-1" value="OrderBeingMade" style="ellipse;whiteSpace=wrap;html=1;" parent="1" vertex="1">
          <mxGeometry x="140" y="280" width="120" height="80" as="geometry" />
        </mxCell>
        <mxCell id="xisyeF8i3s65-wHOhWzp-8" value="" style="edgeStyle=orthogonalEdgeStyle;rounded=0;orthogonalLoop=1;jettySize=auto;html=1;" parent="1" source="xisyeF8i3s65-wHOhWzp-2" target="xisyeF8i3s65-wHOhWzp-3" edge="1">
          <mxGeometry relative="1" as="geometry" />
        </mxCell>
        <mxCell id="qOyvV4EKzxVtPFzoUpul-3" style="edgeStyle=orthogonalEdgeStyle;rounded=0;orthogonalLoop=1;jettySize=auto;html=1;curved=1;" edge="1" parent="1" source="xisyeF8i3s65-wHOhWzp-2" target="xisyeF8i3s65-wHOhWzp-12">
          <mxGeometry relative="1" as="geometry" />
        </mxCell>
        <mxCell id="xisyeF8i3s65-wHOhWzp-2" value="WaitingPayment" style="ellipse;whiteSpace=wrap;html=1;" parent="1" vertex="1">
          <mxGeometry x="140" y="390" width="120" height="80" as="geometry" />
        </mxCell>
        <mxCell id="xisyeF8i3s65-wHOhWzp-9" value="" style="edgeStyle=orthogonalEdgeStyle;rounded=0;orthogonalLoop=1;jettySize=auto;html=1;" parent="1" source="xisyeF8i3s65-wHOhWzp-3" target="xisyeF8i3s65-wHOhWzp-4" edge="1">
          <mxGeometry relative="1" as="geometry" />
        </mxCell>
        <mxCell id="xisyeF8i3s65-wHOhWzp-3" value="OrderBeingPrepared" style="ellipse;whiteSpace=wrap;html=1;" parent="1" vertex="1">
          <mxGeometry x="140" y="510" width="120" height="80" as="geometry" />
        </mxCell>
        <mxCell id="xisyeF8i3s65-wHOhWzp-10" value="" style="edgeStyle=orthogonalEdgeStyle;rounded=0;orthogonalLoop=1;jettySize=auto;html=1;" parent="1" source="xisyeF8i3s65-wHOhWzp-4" target="xisyeF8i3s65-wHOhWzp-5" edge="1">
          <mxGeometry relative="1" as="geometry" />
        </mxCell>
        <mxCell id="xisyeF8i3s65-wHOhWzp-4" value="ReadyOrder" style="ellipse;whiteSpace=wrap;html=1;" parent="1" vertex="1">
          <mxGeometry x="280" y="510" width="120" height="80" as="geometry" />
        </mxCell>
        <mxCell id="xisyeF8i3s65-wHOhWzp-11" value="" style="edgeStyle=orthogonalEdgeStyle;rounded=0;orthogonalLoop=1;jettySize=auto;html=1;" parent="1" source="xisyeF8i3s65-wHOhWzp-5" target="xisyeF8i3s65-wHOhWzp-6" edge="1">
          <mxGeometry relative="1" as="geometry" />
        </mxCell>
        <mxCell id="xisyeF8i3s65-wHOhWzp-5" value="DeliveringOrder" style="ellipse;whiteSpace=wrap;html=1;" parent="1" vertex="1">
          <mxGeometry x="425" y="510" width="120" height="80" as="geometry" />
        </mxCell>
        <mxCell id="xisyeF8i3s65-wHOhWzp-6" value="OrderDelivered" style="ellipse;whiteSpace=wrap;html=1;" parent="1" vertex="1">
          <mxGeometry x="570" y="510" width="120" height="80" as="geometry" />
        </mxCell>
        <mxCell id="xisyeF8i3s65-wHOhWzp-7" value="" style="endArrow=classic;html=1;rounded=0;" parent="1" source="xisyeF8i3s65-wHOhWzp-1" target="xisyeF8i3s65-wHOhWzp-2" edge="1">
          <mxGeometry width="50" height="50" relative="1" as="geometry">
            <mxPoint x="400" y="390" as="sourcePoint" />
            <mxPoint x="450" y="340" as="targetPoint" />
          </mxGeometry>
        </mxCell>
        <mxCell id="xisyeF8i3s65-wHOhWzp-12" value="CanceledOrder" style="ellipse;whiteSpace=wrap;html=1;" parent="1" vertex="1">
          <mxGeometry x="310" y="280" width="120" height="80" as="geometry" />
        </mxCell>
      </root>
    </mxGraphModel>
  </diagram>
</mxfile>
